{
  "accessors": [
    {
      "bufferView": 2,
      "componentType": 5126,
      "count": 65532,
      "max": [
        198.09959411621094,
        138.21080017089844,
        459.07159423828125
      ],
      "min": [
        -198.50450134277344,
        -199.40359497070313,
        112.00679779052734
      ],
      "type": "VEC3"
    },
    {
      "bufferView": 2,
      "byteOffset": 786384,
      "componentType": 5126,
      "count": 65532,
      "max": [
        1.0,
        0.9999722242355347,
        0.9998751878738403
      ],
      "min": [
        -0.9999033212661743,
        -0.9999351501464844,
        -0.9999873638153076
      ],
      "type": "VEC3"
    },
    {
      "bufferView": 1,
      "componentType": 5126,
      "count": 65532,
      "max": [
        1.0,
        0.9998999834060669
      ],
      "min": [
        0.0005000000237487257,
        0.00019999999494757503
      ],
      "type": "VEC2"
    },
    {
      "bufferView": 0,
      "componentType": 5125,
      "count": 314865,
      "type": "SCALAR"
    },
    {
      "bufferView": 2,
      "byteOffset": 1572768,
      "componentType": 5126,
      "count": 65532,
      "max": [
        137.7899932861328,
        159.98289489746094,
        403.74578857421875
      ],
      "min": [
        -173.67059326171875,
        -199.40359497070313,
        -14.465499877929688
      ],
      "type": "VEC3"
    },
    {
      "bufferView": 2,
      "byteOffset": 2359152,
      "componentType": 5126,
      "count": 65532,
      "max": [
        1.0,
        0.9999873638153076,
        0.9999996423721313
      ],
      "min": [
        -0.9999872446060181,
        -0.9999750852584839,
        -0.9999761581420898
      ],
      "type": "VEC3"
    },
    {
      "bufferView": 1,
      "byteOffset": 524256,
      "componentType": 5126,
      "count": 65532,
      "max": [
        1.0,
        0.9998000264167786
      ],
      "min": [
        0.0005000000237487257,
        0.0
      ],
      "type": "VEC2"
    },
    {
      "bufferView": 0,
      "byteOffset": 1259460,
      "componentType": 5125,
      "count": 309261,
      "type": "SCALAR"
    },
    {
      "bufferView": 2,
      "byteOffset": 3145536,
      "componentType": 5126,
      "count": 59038,
      "max": [
        198.50450134277344,
        140.1175994873047,
        457.52191162109375
      ],
      "min": [
        -198.50450134277344,
        -204.63009643554688,
        -17.216699600219727
      ],
      "type": "VEC3"
    },
    {
      "bufferView": 2,
      "byteOffset": 3853992,
      "componentType": 5126,
      "count": 59038,
      "max": [
        1.0,
        0.9999110698699951,
        0.9999707937240601
      ],
      "min": [
        -0.9998298287391663,
        -0.9999574422836304,
        -0.9999792575836182
      ],
      "type": "VEC3"
    },
    {
      "bufferView": 1,
      "byteOffset": 1048512,
      "componentType": 5126,
      "count": 59038,
      "max": [
        1.0,
        1.0
      ],
      "min": [
        0.0,
        0.0
      ],
      "type": "VEC2"
    },
    {
      "bufferView": 0,
      "byteOffset": 2496504,
      "componentType": 5125,
      "count": 250149,
      "type": "SCALAR"
    },
    {
      "bufferView": 2,
      "byteOffset": 4562448,
      "componentType": 5126,
      "count": 65532,
      "max": [
        221.48159790039063,
        218.98350524902344,
        99.87529754638672
      ],
      "min": [
        -257.22509765625,
        -256.82879638671875,
        -0.0
      ],
      "type": "VEC3"
    },
    {
      "bufferView": 2,
      "byteOffset": 5348832,
      "componentType": 5126,
      "count": 65532,
      "max": [
        0.9999915361404419,
        0.999976634979248,
        0.9999353885650635
      ],
      "min": [
        -0.9999802112579346,
        -0.9999836683273315,
        -0.999964714050293
      ],
      "type": "VEC3"
    },
    {
      "bufferView": 1,
      "byteOffset": 1520816,
      "componentType": 5126,
      "count": 65532,
      "max": [
        0.9994999766349792,
        0.9998999834060669
      ],
      "min": [
        0.0005000000237487257,
        0.0006000000284984708
      ],
      "type": "VEC2"
    },
    {
      "bufferView": 0,
      "byteOffset": 3497100,
      "componentType": 5125,
      "count": 298317,
      "type": "SCALAR"
    },
    {
      "bufferView": 2,
      "byteOffset": 6135216,
      "componentType": 5126,
      "count": 65532,
      "max": [
        194.181396484375,
        217.22360229492188,
        99.87529754638672
      ],
      "min": [
        -240.43370056152344,
        -255.52740478515625,
        -0.0
      ],
      "type": "VEC3"
    },
    {
      "bufferView": 2,
      "byteOffset": 6921600,
      "componentType": 5126,
      "count": 65532,
      "max": [
        0.9998904466629028,
        0.9998899698257446,
        0.9999874830245972
      ],
      "min": [
        -0.9999778270721436,
        -0.9998818635940552,
        -0.9999791383743286
      ],
      "type": "VEC3"
    },
    {
      "bufferView": 1,
      "byteOffset": 2045072,
      "componentType": 5126,
      "count": 65532,
      "max": [
        0.9998000264167786,
        0.9998999834060669
      ],
      "min": [
        0.0006000000284984708,
        0.0005000000237487257
      ],
      "type": "VEC2"
    },
    {
      "bufferView": 0,
      "byteOffset": 4690368,
      "componentType": 5125,
      "count": 310146,
      "type": "SCALAR"
    },
    {
      "bufferView": 2,
      "byteOffset": 7707984,
      "componentType": 5126,
      "count": 65532,
      "max": [
        222.9217071533203,
        -4.645999908447266,
        99.22219848632813
      ],
      "min": [
        -214.33050537109375,
        -256.42999267578125,
        0.0
      ],
      "type": "VEC3"
    },
    {
      "bufferView": 2,
      "byteOffset": 8494368,
      "componentType": 5126,
      "count": 65532,
      "max": [
        0.9999463558197021,
        0.9999887943267822,
        0.999996542930603
      ],
      "min": [
        -0.9999815225601196,
        -0.9999836683273315,
        -0.9999843835830688
      ],
      "type": "VEC3"
    },
    {
      "bufferView": 1,
      "byteOffset": 2569328,
      "componentType": 5126,
      "count": 65532,
      "max": [
        0.9998000264167786,
        0.9998000264167786
      ],
      "min": [
        0.0005000000237487257,
        0.0005000000237487257
      ],
      "type": "VEC2"
    },
    {
      "bufferView": 0,
      "byteOffset": 5930952,
      "componentType": 5125,
      "count": 305517,
      "type": "SCALAR"
    },
    {
      "bufferView": 2,
      "byteOffset": 9280752,
      "componentType": 5126,
      "count": 65532,
      "max": [
        221.75149536132813,
        81.135498046875,
        99.42500305175781
      ],
      "min": [
        -213.7200927734375,
        -251.5146942138672,
        -0.0
      ],
      "type": "VEC3"
    },
    {
      "bufferView": 2,
      "byteOffset": 10067136,
      "componentType": 5126,
      "count": 65532,
      "max": [
        0.9999803304672241,
        0.9998601675033569,
        0.9999942779541016
      ],
      "min": [
        -0.9999963045120239,
        -0.9999948740005493,
        -0.9999747276306152
      ],
      "type": "VEC3"
    },
    {
      "bufferView": 1,
      "byteOffset": 3093584,
      "componentType": 5126,
      "count": 65532,
      "max": [
        0.9998999834060669,
        0.9998999834060669
      ],
      "min": [
        0.0006000000284984708,
        0.0005000000237487257
      ],
      "type": "VEC2"
    },
    {
      "bufferView": 0,
      "byteOffset": 7153020,
      "componentType": 5125,
      "count": 303519,
      "type": "SCALAR"
    },
    {
      "bufferView": 2,
      "byteOffset": 10853520,
      "componentType": 5126,
      "count": 65532,
      "max": [
        223.827392578125,
        219.3450927734375,
        97.72450256347656
      ],
      "min": [
        -0.9236999750137329,
        -16.392499923706055,
        -0.0
      ],
      "type": "VEC3"
    },
    {
      "bufferView": 2,
      "byteOffset": 11639904,
      "componentType": 5126,
      "count": 65532,
      "max": [
        0.9998785257339478,
        0.9999911785125732,
        0.9999886751174927
      ],
      "min": [
        -0.9999878406524658,
        -0.9999500513076782,
        -0.9999815225601196
      ],
      "type": "VEC3"
    },
    {
      "bufferView": 1,
      "byteOffset": 3617840,
      "componentType": 5126,
      "count": 65532,
      "max": [
        1.0,
        0.9998999834060669
      ],
      "min": [
        0.0005000000237487257,
        0.0005000000237487257
      ],
      "type": "VEC2"
    },
    {
      "bufferView": 0,
      "byteOffset": 8367096,
      "componentType": 5125,
      "count": 312804,
      "type": "SCALAR"
    },
    {
      "bufferView": 2,
      "byteOffset": 12426288,
      "componentType": 5126,
      "count": 47613,
      "max": [
        225.19479370117188,
        225.02369689941406,
        102.49310302734375
      ],
      "min": [
        -256.11871337890625,
        -10.933899879455566,
        -0.0
      ],
      "type": "VEC3"
    },
    {
      "bufferView": 2,
      "byteOffset": 12997644,
      "componentType": 5126,
      "count": 47613,
      "max": [
        0.9999899864196777,
        0.9999815225601196,
        0.9999933242797852
      ],
      "min": [
        -0.9999139308929443,
        -0.9998818635940552,
        -0.9999630451202393
      ],
      "type": "VEC3"
    },
    {
      "bufferView": 1,
      "byteOffset": 4142096,
      "componentType": 5126,
      "count": 47613,
      "max": [
        1.0,
        0.9998999834060669
      ],
      "min": [
        0.0005000000237487257,
        0.0005000000237487257
      ],
      "type": "VEC2"
    },
    {
      "bufferView": 0,
      "byteOffset": 9618312,
      "componentType": 5125,
      "count": 206964,
      "type": "SCALAR"
    },
    {
      "bufferView": 2,
      "byteOffset": 13569000,
      "componentType": 5126,
      "count": 108,
      "max": [
        60.87070083618164,
        41.49729919433594,
        13.983099937438965
      ],
      "min": [
        -93.19979858398438,
        -81.72380065917969,
        -17.216699600219727
      ],
      "type": "VEC3"
    },
    {
      "bufferView": 2,
      "byteOffset": 13570296,
      "componentType": 5126,
      "count": 108,
      "max": [
        1.0,
        0.9836291074752808,
        0.9959970116615295
      ],
      "min": [
        -0.9861853718757629,
        -0.997456967830658,
        -0.9911274313926697
      ],
      "type": "VEC3"
    },
    {
      "bufferView": 1,
      "byteOffset": 4523000,
      "componentType": 5126,
      "count": 108,
      "max": [
        0.9979000091552734,
        0.9987999796867371
      ],
      "min": [
        0.0006000000284984708,
        0.05920000001788139
      ],
      "type": "VEC2"
    },
    {
      "bufferView": 0,
      "byteOffset": 10446168,
      "componentType": 5125,
      "count": 195,
      "type": "SCALAR"
    }
  ],
  "asset": {
    "extras": {
      "author": "saeed khalili (https://sketchfab.com/saeedkhalili.ir)",
      "license": "CC-BY-4.0 (http://creativecommons.org/licenses/by/4.0/)",
      "source": "https://sketchfab.com/3d-models/explosion-as-solid-be45bff647324db5b12fec5f5556a621",
      "title": "Explosion as Solid"
    },
    "generator": "Sketchfab-12.67.0",
    "version": "2.0"
  },
  "bufferViews": [
    {
      "buffer": 0,
      "byteLength": 10446948,
      "name": "floatBufferViews",
      "target": 34963
    },
    {
      "buffer": 0,
      "byteLength": 4523864,
      "byteOffset": 10446948,
      "byteStride": 8,
      "name": "floatBufferViews",
      "target": 34962
    },
    {
      "buffer": 0,
      "byteLength": 13571592,
      "byteOffset": 14970812,
      "byteStride": 12,
      "name": "floatBufferViews",
      "target": 34962
    }
  ],
  "buffers": [
    {
      "byteLength": 28542404,
      "uri": "scene.bin"
    }
  ],
  "extensionsUsed": [
    "KHR_materials_unlit"
  ],
  "images": [
    {
      "uri": "textures/Material__26_baseColor.jpeg"
    }
  ],
  "materials": [
    {
      "doubleSided": true,
      "emissiveFactor": [
        1.0,
        1.0,
        1.0
      ],
      "emissiveTexture": {
        "index": 0
      },
      "extensions": {
        "KHR_materials_unlit": {}
      },
      "name": "Material__26",
      "pbrMetallicRoughness": {
        "baseColorTexture": {
          "index": 0
        },
        "metallicFactor": 0.0
      }
    }
  ],
  "meshes": [
    {
      "name": "Object_0",
      "primitives": [
        {
          "attributes": {
            "NORMAL": 1,
            "POSITION": 0,
            "TEXCOORD_0": 2
          },
          "indices": 3,
          "material": 0,
          "mode": 4
        }
      ]
    },
    {
      "name": "Object_1",
      "primitives": [
        {
          "attributes": {
            "NORMAL": 5,
            "POSITION": 4,
            "TEXCOORD_0": 6
          },
          "indices": 7,
          "material": 0,
          "mode": 4
        }
      ]
    },
    {
      "name": "Object_2",
      "primitives": [
        {
          "attributes": {
            "NORMAL": 9,
            "POSITION": 8,
            "TEXCOORD_0": 10
          },
          "indices": 11,
          "material": 0,
          "mode": 4
        }
      ]
    },
    {
      "name": "Object_3",
      "primitives": [
        {
          "attributes": {
            "NORMAL": 13,
            "POSITION": 12,
            "TEXCOORD_0": 14
          },
          "indices": 15,
          "material": 0,
          "mode": 4
        }
      ]
    },
    {
      "name": "Object_4",
      "primitives": [
        {
          "attributes": {
            "NORMAL": 17,
            "POSITION": 16,
            "TEXCOORD_0": 18
          },
          "indices": 19,
          "material": 0,
          "mode": 4
        }
      ]
    },
    {
      "name": "Object_5",
      "primitives": [
        {
          "attributes": {
            "NORMAL": 21,
            "POSITION": 20,
            "TEXCOORD_0": 22
          },
          "indices": 23,
          "material": 0,
          "mode": 4
        }
      ]
    },
    {
      "name": "Object_6",
      "primitives": [
        {
          "attributes": {
            "NORMAL": 25,
            "POSITION": 24,
            "TEXCOORD_0": 26
          },
          "indices": 27,
          "material": 0,
          "mode": 4
        }
      ]
    },
    {
      "name": "Object_7",
      "primitives": [
        {
          "attributes": {
            "NORMAL": 29,
            "POSITION": 28,
            "TEXCOORD_0": 30
          },
          "indices": 31,
          "material": 0,
          "mode": 4
        }
      ]
    },
    {
      "name": "Object_8",
      "primitives": [
        {
          "attributes": {
            "NORMAL": 33,
            "POSITION": 32,
            "TEXCOORD_0": 34
          },
          "indices": 35,
          "material": 0,
          "mode": 4
        }
      ]
    },
    {
      "name": "Object_9",
      "primitives": [
        {
          "attributes": {
            "NORMAL": 37,
            "POSITION": 36,
            "TEXCOORD_0": 38
          },
          "indices": 39,
          "material": 0,
          "mode": 4
        }
      ]
    }
  ],
  "nodes": [
    {
      "children": [
        1
      ],
      "matrix": [
        0.026332972571253777,
        0.0,
        0.0,
        0.0,
        0.0,
        5.847094491085731e-18,
        -0.026332972571253777,
        0.0,
        0.0,
        0.026332972571253777,
        5.847094491085731e-18,
        0.0,
        0.0,
        0.0,
        0.0,
        1.0
      ],
      "name": "Sketchfab_model"
    },
    {
      "children": [
        2,
        3,
        4,
        5,
        6,
        7,
        8,
        9,
        10,
        11
      ],
      "name": "explosion.obj.cleaner.materialmerger.gles"
    },
    {
      "mesh": 0,
      "name": "Object_2"
    },
    {
      "mesh": 1,
      "name": "Object_3"
    },
    {
      "mesh": 2,
      "name": "Object_4"
    },
    {
      "mesh": 3,
      "name": "Object_5"
    },
    {
      "mesh": 4,
      "name": "Object_6"
    },
    {
      "mesh": 5,
      "name": "Object_7"
    },
    {
      "mesh": 6,
      "name": "Object_8"
    },
    {
      "mesh": 7,
      "name": "Object_9"
    },
    {
      "mesh": 8,
      "name": "Object_10"
    },
    {
      "mesh": 9,
      "name": "Object_11"
    }
  ],
  "samplers": [
    {
      "magFilter": 9729,
      "minFilter": 9987,
      "wrapS": 10497,
      "wrapT": 10497
    }
  ],
  "scene": 0,
  "scenes": [
    {
      "name": "Sketchfab_Scene",
      "nodes": [
        0
      ]
    }
  ],
  "textures": [
    {
      "sampler": 0,
      "source": 0
    }
  ]
}
