{
  "asset": {
    "generator": "Khronos glTF Blender I/O v3.6.27",
    "version": "2.0"
  },
  "scene": 0,
  "scenes": [
    {
      "name": "SceneName",
      "nodes": [0, 1, 2, 3, 4, 5, 6, 7, 8, 9, 10, 11, 12, 13, 14, 15]
    }
  ],
  "nodes": [
    {
      "name": "Empty",
      "rotation": [0.7071068286895752, 0, 0, 0.7071068286895752],
      "scale": [4.413971900939941, 4.413971900939941, 4.413971900939941],
      "translation": [0, 7.519999980926514, 0]
    },
    {
      "mesh": 0,
      "name": "Cylinder",
      "scale": [0.40661025047302246, 0.40661025047302246, 0.40661025047302246],
      "translation": [0, 0.6599999666213989, 0]
    },
    {
      "mesh": 1,
      "name": "Cylinder.001",
      "scale": [0.3991284966468811, 0.3991284966468811, 0.3991284966468811],
      "translation": [-0.8799999356269836, 0.6599999666213989, 0]
    },
    {
      "mesh": 2,
      "name": "Cylinder.002",
      "scale": [0.3991284966468811, 0.3991284966468811, 0.3991284966468811],
      "translation": [0.8800000548362732, 0.6599999666213989, 0]
    },
    {
      "mesh": 3,
      "name": "Cylinder.003",
      "rotation": [0, -0.5, 0, 0.8660253882408142],
      "scale": [0.0946904718875885, 0.0946904718875885, 0.0946904718875885],
      "translation": [
        -1.1652896404266357, 8.636090278625488, 0.2760618329048157
      ]
    },
    {
      "mesh": 4,
      "name": "Cylinder.004",
      "rotation": [0, 0.5, 0, 0.8660253882408142],
      "scale": [0.0946904718875885, 0.0946904718875885, 0.0946904718875885],
      "translation": [
        -0.5901305079460144, 8.636090278625488, 0.2760618329048157
      ]
    },
    {
      "mesh": 5,
      "name": "Cylinder.005",
      "rotation": [0, -0.5, 0, 0.8660253882408142],
      "scale": [0.0946904718875885, 0.0946904718875885, 0.0946904718875885],
      "translation": [0.5908172726631165, 8.636090278625488, 0.2760618329048157]
    },
    {
      "mesh": 6,
      "name": "Cylinder.006",
      "rotation": [0, 0.5, 0, 0.8660253882408142],
      "scale": [0.0946904718875885, 0.0946904718875885, 0.0946904718875885],
      "translation": [1.1659765243530273, 8.636090278625488, 0.2760618329048157]
    },
    {
      "mesh": 7,
      "name": "Cylinder.007",
      "rotation": [0, 0.8665006756782532, 0, 0.49917593598365784],
      "scale": [0.0946904718875885, 0.0946904718875885, 0.0946904718875885],
      "translation": [
        1.1659743785858154, 8.636090278625488, -0.27601557970046997
      ]
    },
    {
      "mesh": 8,
      "name": "Cylinder.008",
      "rotation": [0, -0.8655494451522827, 0, 0.5008236765861511],
      "scale": [0.0946904718875885, 0.0946904718875885, 0.0946904718875885],
      "translation": [
        0.5908161997795105, 8.636090278625488, -0.2749212086200714
      ]
    },
    {
      "mesh": 9,
      "name": "Cylinder.009",
      "rotation": [0, 0.8665006756782532, 0, 0.49917593598365784],
      "scale": [0.0946904718875885, 0.0946904718875885, 0.0946904718875885],
      "translation": [
        -0.5901294350624084, 8.636090278625488, -0.27267417311668396
      ]
    },
    {
      "mesh": 10,
      "name": "Cylinder.010",
      "rotation": [0, -0.8655494451522827, 0, 0.5008236765861511],
      "scale": [0.0946904718875885, 0.0946904718875885, 0.0946904718875885],
      "translation": [
        -1.165287733078003, 8.636090278625488, -0.2715798020362854
      ]
    },
    {
      "mesh": 11,
      "name": "Cylinder.011",
      "rotation": [0, -0.5, 0, 0.8660253882408142],
      "scale": [0.0946904718875885, 0.0946904718875885, 0.0946904718875885],
      "translation": [
        -0.2892100512981415, 8.636090278625488, 0.2760618329048157
      ]
    },
    {
      "mesh": 12,
      "name": "Cylinder.012",
      "rotation": [0, 0.5, 0, 0.8660253882408142],
      "scale": [0.0946904718875885, 0.0946904718875885, 0.0946904718875885],
      "translation": [
        0.28594908118247986, 8.636090278625488, 0.2760618329048157
      ]
    },
    {
      "mesh": 13,
      "name": "Cylinder.013",
      "rotation": [0, 0.8665006756782532, 0, 0.49917593598365784],
      "scale": [0.0946904718875885, 0.0946904718875885, 0.0946904718875885],
      "translation": [
        0.2886629104614258, 8.636090278625488, -0.27267417311668396
      ]
    },
    {
      "mesh": 14,
      "name": "Cylinder.014",
      "rotation": [0, -0.8655494451522827, 0, 0.5008236765861511],
      "scale": [0.0946904718875885, 0.0946904718875885, 0.0946904718875885],
      "translation": [
        -0.2864953875541687, 8.636090278625488, -0.2715798020362854
      ]
    }
  ],
  "materials": [
    {
      "doubleSided": true,
      "name": "Metal",
      "pbrMetallicRoughness": {
        "metallicFactor": 0.5
      }
    },
    {
      "doubleSided": true,
      "name": "Metal.001",
      "pbrMetallicRoughness": {
        "metallicFactor": 0.5
      }
    }
  ],
  "meshes": [
    {
      "name": "Cylinder",
      "primitives": [
        {
          "attributes": {
            "POSITION": 0,
            "NORMAL": 1,
            "TEXCOORD_0": 2
          },
          "indices": 3,
          "material": 0
        }
      ]
    },
    {
      "name": "Cylinder.001",
      "primitives": [
        {
          "attributes": {
            "POSITION": 4,
            "NORMAL": 5,
            "TEXCOORD_0": 6
          },
          "indices": 7,
          "material": 0
        }
      ]
    },
    {
      "name": "Cylinder.002",
      "primitives": [
        {
          "attributes": {
            "POSITION": 8,
            "NORMAL": 9,
            "TEXCOORD_0": 10
          },
          "indices": 7,
          "material": 0
        }
      ]
    },
    {
      "name": "Cylinder.003",
      "primitives": [
        {
          "attributes": {
            "POSITION": 11,
            "NORMAL": 12,
            "TEXCOORD_0": 13
          },
          "indices": 14,
          "material": 1
        }
      ]
    },
    {
      "name": "Cylinder.004",
      "primitives": [
        {
          "attributes": {
            "POSITION": 15,
            "NORMAL": 16,
            "TEXCOORD_0": 17
          },
          "indices": 14,
          "material": 1
        }
      ]
    },
    {
      "name": "Cylinder.005",
      "primitives": [
        {
          "attributes": {
            "POSITION": 18,
            "NORMAL": 19,
            "TEXCOORD_0": 20
          },
          "indices": 14,
          "material": 1
        }
      ]
    },
    {
      "name": "Cylinder.006",
      "primitives": [
        {
          "attributes": {
            "POSITION": 21,
            "NORMAL": 22,
            "TEXCOORD_0": 23
          },
          "indices": 14,
          "material": 1
        }
      ]
    },
    {
      "name": "Cylinder.007",
      "primitives": [
        {
          "attributes": {
            "POSITION": 24,
            "NORMAL": 25,
            "TEXCOORD_0": 26
          },
          "indices": 14,
          "material": 1
        }
      ]
    },
    {
      "name": "Cylinder.008",
      "primitives": [
        {
          "attributes": {
            "POSITION": 27,
            "NORMAL": 28,
            "TEXCOORD_0": 29
          },
          "indices": 14,
          "material": 1
        }
      ]
    },
    {
      "name": "Cylinder.009",
      "primitives": [
        {
          "attributes": {
            "POSITION": 30,
            "NORMAL": 31,
            "TEXCOORD_0": 32
          },
          "indices": 14,
          "material": 1
        }
      ]
    },
    {
      "name": "Cylinder.010",
      "primitives": [
        {
          "attributes": {
            "POSITION": 33,
            "NORMAL": 34,
            "TEXCOORD_0": 35
          },
          "indices": 14,
          "material": 1
        }
      ]
    },
    {
      "name": "Cylinder.011",
      "primitives": [
        {
          "attributes": {
            "POSITION": 36,
            "NORMAL": 37,
            "TEXCOORD_0": 38
          },
          "indices": 14,
          "material": 1
        }
      ]
    },
    {
      "name": "Cylinder.012",
      "primitives": [
        {
          "attributes": {
            "POSITION": 39,
            "NORMAL": 40,
            "TEXCOORD_0": 41
          },
          "indices": 14,
          "material": 1
        }
      ]
    },
    {
      "name": "Cylinder.013",
      "primitives": [
        {
          "attributes": {
            "POSITION": 42,
            "NORMAL": 43,
            "TEXCOORD_0": 44
          },
          "indices": 14,
          "material": 1
        }
      ]
    },
    {
      "name": "Cylinder.014",
      "primitives": [
        {
          "attributes": {
            "POSITION": 45,
            "NORMAL": 46,
            "TEXCOORD_0": 47
          },
          "indices": 14,
          "material": 1
        }
      ]
    }
  ],
  "accessors": [
    {
      "bufferView": 0,
      "componentType": 5126,
      "count": 394,
      "max": [1.3763785362243652, 36.34257888793945, 1.3763774633407593],
      "min": [-1.3763809204101562, -1, -1.3763774633407593],
      "type": "VEC3"
    },
    {
      "bufferView": 1,
      "componentType": 5126,
      "count": 394,
      "type": "VEC3"
    },
    {
      "bufferView": 2,
      "componentType": 5126,
      "count": 394,
      "type": "VEC2"
    },
    {
      "bufferView": 3,
      "componentType": 5123,
      "count": 1908,
      "type": "SCALAR"
    },
    {
      "bufferView": 4,
      "componentType": 5126,
      "count": 295,
      "max": [1, 23.119455337524414, 1],
      "min": [-1, -1, -1],
      "type": "VEC3"
    },
    {
      "bufferView": 5,
      "componentType": 5126,
      "count": 295,
      "type": "VEC3"
    },
    {
      "bufferView": 6,
      "componentType": 5126,
      "count": 295,
      "type": "VEC2"
    },
    {
      "bufferView": 7,
      "componentType": 5123,
      "count": 1332,
      "type": "SCALAR"
    },
    {
      "bufferView": 8,
      "componentType": 5126,
      "count": 295,
      "max": [1, 23.119455337524414, 1],
      "min": [-1, -1, -1],
      "type": "VEC3"
    },
    {
      "bufferView": 9,
      "componentType": 5126,
      "count": 295,
      "type": "VEC3"
    },
    {
      "bufferView": 10,
      "componentType": 5126,
      "count": 295,
      "type": "VEC2"
    },
    {
      "bufferView": 11,
      "componentType": 5126,
      "count": 229,
      "max": [1, 2.0749690532684326, 1],
      "min": [-1, -1, -1.1693743467330933],
      "type": "VEC3"
    },
    {
      "bufferView": 12,
      "componentType": 5126,
      "count": 229,
      "type": "VEC3"
    },
    {
      "bufferView": 13,
      "componentType": 5126,
      "count": 229,
      "type": "VEC2"
    },
    {
      "bufferView": 14,
      "componentType": 5123,
      "count": 948,
      "type": "SCALAR"
    },
    {
      "bufferView": 15,
      "componentType": 5126,
      "count": 229,
      "max": [1, 2.0749690532684326, 1],
      "min": [-1, -1, -1.1693743467330933],
      "type": "VEC3"
    },
    {
      "bufferView": 16,
      "componentType": 5126,
      "count": 229,
      "type": "VEC3"
    },
    {
      "bufferView": 17,
      "componentType": 5126,
      "count": 229,
      "type": "VEC2"
    },
    {
      "bufferView": 18,
      "componentType": 5126,
      "count": 229,
      "max": [1, 2.0749690532684326, 1],
      "min": [-1, -1, -1.1693743467330933],
      "type": "VEC3"
    },
    {
      "bufferView": 19,
      "componentType": 5126,
      "count": 229,
      "type": "VEC3"
    },
    {
      "bufferView": 20,
      "componentType": 5126,
      "count": 229,
      "type": "VEC2"
    },
    {
      "bufferView": 21,
      "componentType": 5126,
      "count": 229,
      "max": [1, 2.0749690532684326, 1],
      "min": [-1, -1, -1.1693743467330933],
      "type": "VEC3"
    },
    {
      "bufferView": 22,
      "componentType": 5126,
      "count": 229,
      "type": "VEC3"
    },
    {
      "bufferView": 23,
      "componentType": 5126,
      "count": 229,
      "type": "VEC2"
    },
    {
      "bufferView": 24,
      "componentType": 5126,
      "count": 229,
      "max": [1, 2.0749690532684326, 1],
      "min": [-1, -1, -1.1693743467330933],
      "type": "VEC3"
    },
    {
      "bufferView": 25,
      "componentType": 5126,
      "count": 229,
      "type": "VEC3"
    },
    {
      "bufferView": 26,
      "componentType": 5126,
      "count": 229,
      "type": "VEC2"
    },
    {
      "bufferView": 27,
      "componentType": 5126,
      "count": 229,
      "max": [1, 2.0749690532684326, 1],
      "min": [-1, -1, -1.1693743467330933],
      "type": "VEC3"
    },
    {
      "bufferView": 28,
      "componentType": 5126,
      "count": 229,
      "type": "VEC3"
    },
    {
      "bufferView": 29,
      "componentType": 5126,
      "count": 229,
      "type": "VEC2"
    },
    {
      "bufferView": 30,
      "componentType": 5126,
      "count": 229,
      "max": [1, 2.0749690532684326, 1],
      "min": [-1, -1, -1.1693743467330933],
      "type": "VEC3"
    },
    {
      "bufferView": 31,
      "componentType": 5126,
      "count": 229,
      "type": "VEC3"
    },
    {
      "bufferView": 32,
      "componentType": 5126,
      "count": 229,
      "type": "VEC2"
    },
    {
      "bufferView": 33,
      "componentType": 5126,
      "count": 229,
      "max": [1, 2.0749690532684326, 1],
      "min": [-1, -1, -1.1693743467330933],
      "type": "VEC3"
    },
    {
      "bufferView": 34,
      "componentType": 5126,
      "count": 229,
      "type": "VEC3"
    },
    {
      "bufferView": 35,
      "componentType": 5126,
      "count": 229,
      "type": "VEC2"
    },
    {
      "bufferView": 36,
      "componentType": 5126,
      "count": 229,
      "max": [1, 2.0749690532684326, 1],
      "min": [-1, -1, -1.1693743467330933],
      "type": "VEC3"
    },
    {
      "bufferView": 37,
      "componentType": 5126,
      "count": 229,
      "type": "VEC3"
    },
    {
      "bufferView": 38,
      "componentType": 5126,
      "count": 229,
      "type": "VEC2"
    },
    {
      "bufferView": 39,
      "componentType": 5126,
      "count": 229,
      "max": [1, 2.0749690532684326, 1],
      "min": [-1, -1, -1.1693743467330933],
      "type": "VEC3"
    },
    {
      "bufferView": 40,
      "componentType": 5126,
      "count": 229,
      "type": "VEC3"
    },
    {
      "bufferView": 41,
      "componentType": 5126,
      "count": 229,
      "type": "VEC2"
    },
    {
      "bufferView": 42,
      "componentType": 5126,
      "count": 229,
      "max": [1, 2.0749690532684326, 1],
      "min": [-1, -1, -1.1693743467330933],
      "type": "VEC3"
    },
    {
      "bufferView": 43,
      "componentType": 5126,
      "count": 229,
      "type": "VEC3"
    },
    {
      "bufferView": 44,
      "componentType": 5126,
      "count": 229,
      "type": "VEC2"
    },
    {
      "bufferView": 45,
      "componentType": 5126,
      "count": 229,
      "max": [1, 2.0749690532684326, 1],
      "min": [-1, -1, -1.1693743467330933],
      "type": "VEC3"
    },
    {
      "bufferView": 46,
      "componentType": 5126,
      "count": 229,
      "type": "VEC3"
    },
    {
      "bufferView": 47,
      "componentType": 5126,
      "count": 229,
      "type": "VEC2"
    }
  ],
  "bufferViews": [
    {
      "buffer": 0,
      "byteLength": 4728,
      "byteOffset": 0,
      "target": 34962
    },
    {
      "buffer": 0,
      "byteLength": 4728,
      "byteOffset": 4728,
      "target": 34962
    },
    {
      "buffer": 0,
      "byteLength": 3152,
      "byteOffset": 9456,
      "target": 34962
    },
    {
      "buffer": 0,
      "byteLength": 3816,
      "byteOffset": 12608,
      "target": 34963
    },
    {
      "buffer": 0,
      "byteLength": 3540,
      "byteOffset": 16424,
      "target": 34962
    },
    {
      "buffer": 0,
      "byteLength": 3540,
      "byteOffset": 19964,
      "target": 34962
    },
    {
      "buffer": 0,
      "byteLength": 2360,
      "byteOffset": 23504,
      "target": 34962
    },
    {
      "buffer": 0,
      "byteLength": 2664,
      "byteOffset": 25864,
      "target": 34963
    },
    {
      "buffer": 0,
      "byteLength": 3540,
      "byteOffset": 28528,
      "target": 34962
    },
    {
      "buffer": 0,
      "byteLength": 3540,
      "byteOffset": 32068,
      "target": 34962
    },
    {
      "buffer": 0,
      "byteLength": 2360,
      "byteOffset": 35608,
      "target": 34962
    },
    {
      "buffer": 0,
      "byteLength": 2748,
      "byteOffset": 37968,
      "target": 34962
    },
    {
      "buffer": 0,
      "byteLength": 2748,
      "byteOffset": 40716,
      "target": 34962
    },
    {
      "buffer": 0,
      "byteLength": 1832,
      "byteOffset": 43464,
      "target": 34962
    },
    {
      "buffer": 0,
      "byteLength": 1896,
      "byteOffset": 45296,
      "target": 34963
    },
    {
      "buffer": 0,
      "byteLength": 2748,
      "byteOffset": 47192,
      "target": 34962
    },
    {
      "buffer": 0,
      "byteLength": 2748,
      "byteOffset": 49940,
      "target": 34962
    },
    {
      "buffer": 0,
      "byteLength": 1832,
      "byteOffset": 52688,
      "target": 34962
    },
    {
      "buffer": 0,
      "byteLength": 2748,
      "byteOffset": 54520,
      "target": 34962
    },
    {
      "buffer": 0,
      "byteLength": 2748,
      "byteOffset": 57268,
      "target": 34962
    },
    {
      "buffer": 0,
      "byteLength": 1832,
      "byteOffset": 60016,
      "target": 34962
    },
    {
      "buffer": 0,
      "byteLength": 2748,
      "byteOffset": 61848,
      "target": 34962
    },
    {
      "buffer": 0,
      "byteLength": 2748,
      "byteOffset": 64596,
      "target": 34962
    },
    {
      "buffer": 0,
      "byteLength": 1832,
      "byteOffset": 67344,
      "target": 34962
    },
    {
      "buffer": 0,
      "byteLength": 2748,
      "byteOffset": 69176,
      "target": 34962
    },
    {
      "buffer": 0,
      "byteLength": 2748,
      "byteOffset": 71924,
      "target": 34962
    },
    {
      "buffer": 0,
      "byteLength": 1832,
      "byteOffset": 74672,
      "target": 34962
    },
    {
      "buffer": 0,
      "byteLength": 2748,
      "byteOffset": 76504,
      "target": 34962
    },
    {
      "buffer": 0,
      "byteLength": 2748,
      "byteOffset": 79252,
      "target": 34962
    },
    {
      "buffer": 0,
      "byteLength": 1832,
      "byteOffset": 82000,
      "target": 34962
    },
    {
      "buffer": 0,
      "byteLength": 2748,
      "byteOffset": 83832,
      "target": 34962
    },
    {
      "buffer": 0,
      "byteLength": 2748,
      "byteOffset": 86580,
      "target": 34962
    },
    {
      "buffer": 0,
      "byteLength": 1832,
      "byteOffset": 89328,
      "target": 34962
    },
    {
      "buffer": 0,
      "byteLength": 2748,
      "byteOffset": 91160,
      "target": 34962
    },
    {
      "buffer": 0,
      "byteLength": 2748,
      "byteOffset": 93908,
      "target": 34962
    },
    {
      "buffer": 0,
      "byteLength": 1832,
      "byteOffset": 96656,
      "target": 34962
    },
    {
      "buffer": 0,
      "byteLength": 2748,
      "byteOffset": 98488,
      "target": 34962
    },
    {
      "buffer": 0,
      "byteLength": 2748,
      "byteOffset": 101236,
      "target": 34962
    },
    {
      "buffer": 0,
      "byteLength": 1832,
      "byteOffset": 103984,
      "target": 34962
    },
    {
      "buffer": 0,
      "byteLength": 2748,
      "byteOffset": 105816,
      "target": 34962
    },
    {
      "buffer": 0,
      "byteLength": 2748,
      "byteOffset": 108564,
      "target": 34962
    },
    {
      "buffer": 0,
      "byteLength": 1832,
      "byteOffset": 111312,
      "target": 34962
    },
    {
      "buffer": 0,
      "byteLength": 2748,
      "byteOffset": 113144,
      "target": 34962
    },
    {
      "buffer": 0,
      "byteLength": 2748,
      "byteOffset": 115892,
      "target": 34962
    },
    {
      "buffer": 0,
      "byteLength": 1832,
      "byteOffset": 118640,
      "target": 34962
    },
    {
      "buffer": 0,
      "byteLength": 2748,
      "byteOffset": 120472,
      "target": 34962
    },
    {
      "buffer": 0,
      "byteLength": 2748,
      "byteOffset": 123220,
      "target": 34962
    },
    {
      "buffer": 0,
      "byteLength": 1832,
      "byteOffset": 125968,
      "target": 34962
    }
  ],
  "buffers": [
    {
      "byteLength": 127800,
      "uri": "data:application/octet-stream;base64,"
    }
  ]
}
