{
  "accessors": [
    {
      "bufferView": 1,
      "componentType": 5126,
      "count": 18373,
      "max": [66.49356842041016, 66.0337142944336, 202.7532958984375],
      "min": [-65.77484893798828, -66.24153137207031, -892.4002685546875],
      "type": "VEC3"
    },
    {
      "bufferView": 1,
      "byteOffset": 220476,
      "componentType": 5126,
      "count": 18373,
      "max": [1.0, 1.0, 1.0],
      "min": [-1.0, -1.0, -1.0],
      "type": "VEC3"
    },
    {
      "bufferView": 0,
      "componentType": 5125,
      "count": 74466,
      "type": "SCALAR"
    },
    {
      "bufferView": 1,
      "byteOffset": 440952,
      "componentType": 5126,
      "count": 15480,
      "max": [68.2771224975586, 67.49161529541016, -901.9820556640625],
      "min": [-67.37620544433594, -67.1052017211914, -914.1566772460938],
      "type": "VEC3"
    },
    {
      "bufferView": 1,
      "byteOffset": 626712,
      "componentType": 5126,
      "count": 15480,
      "max": [0.9617656469345093, 0.9617656469345093, 0.862296998500824],
      "min": [-0.9617656469345093, -0.9617656469345093, -1.0],
      "type": "VEC3"
    },
    {
      "bufferView": 0,
      "byteOffset": 297864,
      "componentType": 5125,
      "count": 67878,
      "type": "SCALAR"
    },
    {
      "bufferView": 1,
      "byteOffset": 812472,
      "componentType": 5126,
      "count": 3307,
      "max": [65.76005554199219, 65.29298400878906, -891.9820556640625],
      "min": [-64.55286407470703, -65.13719177246094, -901.9820556640625],
      "type": "VEC3"
    },
    {
      "bufferView": 1,
      "byteOffset": 852156,
      "componentType": 5126,
      "count": 3307,
      "max": [0.9969799518585205, 0.9969744682312012, 1.0],
      "min": [-0.9969745874404907, -0.9969742894172668, -1.0],
      "type": "VEC3"
    },
    {
      "bufferView": 0,
      "byteOffset": 569376,
      "componentType": 5125,
      "count": 5427,
      "type": "SCALAR"
    },
    {
      "bufferView": 1,
      "byteOffset": 891840,
      "componentType": 5126,
      "count": 4167,
      "max": [79.90494537353516, 79.12394714355469, -678.6403198242188],
      "min": [-78.57577514648438, -79.30146026611328, -892.4002685546875],
      "type": "VEC3"
    },
    {
      "bufferView": 1,
      "byteOffset": 941844,
      "componentType": 5126,
      "count": 4167,
      "max": [0.999998927116394, 1.0, 0.7747209072113037],
      "min": [-0.9998984932899475, -0.9998959302902222, -1.0],
      "type": "VEC3"
    },
    {
      "bufferView": 0,
      "byteOffset": 591084,
      "componentType": 5125,
      "count": 7740,
      "type": "SCALAR"
    },
    {
      "bufferView": 1,
      "byteOffset": 991848,
      "componentType": 5126,
      "count": 65534,
      "max": [67.5859603881836, 66.9480972290039, -246.61874389648438],
      "min": [-66.56163024902344, -67.37808990478516, -267.3109130859375],
      "type": "VEC3"
    },
    {
      "bufferView": 1,
      "byteOffset": 1778256,
      "componentType": 5126,
      "count": 65534,
      "max": [0.9999997019767761, 1.0, 1.0],
      "min": [-0.9999990463256836, -0.9999995827674866, -1.0],
      "type": "VEC3"
    },
    {
      "bufferView": 0,
      "byteOffset": 622044,
      "componentType": 5125,
      "count": 99204,
      "type": "SCALAR"
    },
    {
      "bufferView": 1,
      "byteOffset": 2564664,
      "componentType": 5126,
      "count": 7135,
      "max": [67.5859603881836, 66.94808197021484, -246.80174255371094],
      "min": [-66.56163024902344, -67.37808990478516, -267.21942138671875],
      "type": "VEC3"
    },
    {
      "bufferView": 1,
      "byteOffset": 2650284,
      "componentType": 5126,
      "count": 7135,
      "max": [0.9999709725379944, 0.9999943375587463, 0.9143412113189697],
      "min": [-0.9999999403953552, -0.9999547600746155, -0.9110928177833557],
      "type": "VEC3"
    },
    {
      "bufferView": 0,
      "byteOffset": 1018860,
      "componentType": 5125,
      "count": 8091,
      "type": "SCALAR"
    }
  ],
  "asset": {
    "extras": {
      "author": "ajd6735 (https://sketchfab.com/ajd6735)",
      "license": "CC-BY-4.0 (http://creativecommons.org/licenses/by/4.0/)",
      "source": "https://sketchfab.com/3d-models/fhm-c2fe3a4409a3431da5b5f2eb014f1ae4",
      "title": "FHM"
    },
    "generator": "Sketchfab-15.47.0",
    "version": "2.0"
  },
  "bufferViews": [
    {
      "buffer": 0,
      "byteLength": 1051224,
      "name": "floatBufferViews",
      "target": 34963
    },
    {
      "buffer": 0,
      "byteLength": 2735904,
      "byteOffset": 1051224,
      "byteStride": 12,
      "name": "floatBufferViews",
      "target": 34962
    }
  ],
  "buffers": [
    {
      "byteLength": 3787128,
      "uri": "scene.bin"
    }
  ],
  "materials": [
    {
      "name": "M_07___Default",
      "pbrMetallicRoughness": {
        "baseColorFactor": [0.7, 0.7, 0.7, 1.0],
        "metallicFactor": 0.0,
        "roughnessFactor": 0.28
      }
    },
    {
      "name": "M_08___Default",
      "pbrMetallicRoughness": {
        "baseColorFactor": [0.914, 0.914, 0.92, 1.0],
        "roughnessFactor": 0.29
      }
    },
    {
      "name": "M_09___Default",
      "pbrMetallicRoughness": {
        "baseColorFactor": [0.00604059, 0.00604059, 0.00604059, 1.0],
        "roughnessFactor": 0.200557
      }
    },
    {
      "name": "M_13___Default",
      "pbrMetallicRoughness": {
        "baseColorFactor": [0.510943, 0.510943, 0.53151, 1.0],
        "metallicFactor": 0.0,
        "roughnessFactor": 0.46
      }
    },
    {
      "name": "M_14___Default",
      "pbrMetallicRoughness": {
        "baseColorFactor": [0.000261544, 0.000261544, 0.000175124, 1.0],
        "metallicFactor": 0.0,
        "roughnessFactor": 0.546447
      }
    }
  ],
  "meshes": [
    {
      "name": "Object_0",
      "primitives": [
        {
          "attributes": {
            "NORMAL": 1,
            "POSITION": 0
          },
          "indices": 2,
          "material": 0,
          "mode": 4
        }
      ]
    },
    {
      "name": "Object_1",
      "primitives": [
        {
          "attributes": {
            "NORMAL": 4,
            "POSITION": 3
          },
          "indices": 5,
          "material": 1,
          "mode": 4
        }
      ]
    },
    {
      "name": "Object_2",
      "primitives": [
        {
          "attributes": {
            "NORMAL": 7,
            "POSITION": 6
          },
          "indices": 8,
          "material": 2,
          "mode": 4
        }
      ]
    },
    {
      "name": "Object_3",
      "primitives": [
        {
          "attributes": {
            "NORMAL": 10,
            "POSITION": 9
          },
          "indices": 11,
          "material": 3,
          "mode": 4
        }
      ]
    },
    {
      "name": "Object_4",
      "primitives": [
        {
          "attributes": {
            "NORMAL": 13,
            "POSITION": 12
          },
          "indices": 14,
          "material": 4,
          "mode": 4
        }
      ]
    },
    {
      "name": "Object_5",
      "primitives": [
        {
          "attributes": {
            "NORMAL": 16,
            "POSITION": 15
          },
          "indices": 17,
          "material": 4,
          "mode": 4
        }
      ]
    }
  ],
  "nodes": [
    {
      "children": [1],
      "matrix": [
        1.0, 0.0, 0.0, 0.0, 0.0, 2.220446049250313e-16, -1.0, 0.0, 0.0, 1.0,
        2.220446049250313e-16, 0.0, 0.0, 0.0, 0.0, 1.0
      ],
      "name": "Sketchfab_model"
    },
    {
      "children": [2],
      "name": "root"
    },
    {
      "children": [3],
      "matrix": [
        1.0, 0.0, 0.0, 0.0, 0.0, 2.220446049250313e-16, 1.0, 0.0, 0.0, -1.0,
        2.220446049250313e-16, 0.0, 0.0, 0.0, 0.0, 1.0
      ],
      "name": "GLTF_SceneRootNode"
    },
    {
      "children": [4],
      "matrix": [
        0.7065908908843994, 0.0, 0.7076222896575928, 0.0, 0.7076222896575928,
        0.0, -0.7065908908843994, 0.0, 0.0, 1.0, 0.0, 0.0, -1.5147359371185303,
        22.666967391967773, -0.00980190560221672, 1.0
      ],
      "name": "_1"
    },
    {
      "children": [5, 6, 7, 8, 9, 10],
      "matrix": [
        0.02539999969303608, 0.0, 0.0, 0.0, 0.0, 0.02539999969303608, 0.0, 0.0,
        0.0, 0.0, 0.02539999969303608, 0.0, 0.0, 0.0, 0.0, 1.0
      ],
      "name": "FalconCylinder001_0"
    },
    {
      "mesh": 0,
      "name": "Object_5"
    },
    {
      "mesh": 1,
      "name": "Object_6"
    },
    {
      "mesh": 2,
      "name": "Object_7"
    },
    {
      "mesh": 3,
      "name": "Object_8"
    },
    {
      "mesh": 4,
      "name": "Object_9"
    },
    {
      "mesh": 5,
      "name": "Object_10"
    }
  ],
  "scene": 0,
  "scenes": [
    {
      "name": "Sketchfab_Scene",
      "nodes": [0]
    }
  ]
}
