{
  "asset": {
    "generator": "Khronos glTF Blender I/O v3.6.28",
    "version": "2.0"
  },
  "extensionsUsed": ["KHR_materials_transmission", "KHR_materials_specular"],
  "scene": 0,
  "scenes": [
    {
      "name": "Scene",
      "nodes": [0, 1]
    }
  ],
  "nodes": [
    {
      "mesh": 0,
      "name": "TextPlus001",
      "rotation": [0, -0.1961161196231842, 0, 0.9805806875228882],
      "scale": [0.07014984637498856, 0.07014984637498856, 0.07014984637498856],
      "translation": [-15, 8, 0]
    },
    {
      "mesh": 1,
      "name": "Cylinder002",
      "rotation": [-0.70710688829422, 0, 0, 0.7071066498756409],
      "scale": [
        0.005831181071698666, 0.005831181071698666, 0.005831181071698666
      ],
      "translation": [
        -14.94418716430664, -4.982073783874512, -0.4132370948791504
      ]
    }
  ],
  "animations": [
    {
      "channels": [
        {
          "sampler": 0,
          "target": {
            "node": 0,
            "path": "translation"
          }
        },
        {
          "sampler": 1,
          "target": {
            "node": 0,
            "path": "rotation"
          }
        }
      ],
      "name": "firstMove",
      "samplers": [
        {
          "input": 11,
          "interpolation": "LINEAR",
          "output": 12
        },
        {
          "input": 11,
          "interpolation": "LINEAR",
          "output": 13
        }
      ]
    }
  ],
  "materials": [
    {
      "emissiveFactor": [
        0.13007040321826935, 0.014803380705416203, 0.019981350749731064
      ],
      "extensions": {
        "KHR_materials_transmission": {
          "transmissionFactor": 0.1899999976158142
        }
      },
      "name": "M_01___Default.003",
      "pbrMetallicRoughness": {
        "baseColorFactor": [
          0.37626224756240845, 0.04970642551779747, 0.10461648553609848, 1
        ],
        "metallicFactor": 0.20000000298023224,
        "roughnessFactor": 0.4271601140499115
      }
    },
    {
      "extensions": {
        "KHR_materials_specular": {
          "specularColorFactor": [0, 0, 0]
        }
      },
      "name": "TimelineBubblePlastic02.001",
      "pbrMetallicRoughness": {
        "baseColorFactor": [
          0.8307697176933289, 0.2462010234594345, 0.2704978585243225, 1
        ],
        "metallicFactor": 0.30000001192092896
      }
    },
    {
      "extensions": {
        "KHR_materials_specular": {
          "specularColorFactor": [
            0.4000000059604644, 0.4000000059604644, 0.4000000059604644
          ]
        }
      },
      "name": "fallback Material.007",
      "pbrMetallicRoughness": {
        "baseColorFactor": [
          0.6509804129600525, 0.8980392217636108, 0.8980392217636108, 1
        ],
        "metallicFactor": 0,
        "roughnessFactor": 0
      }
    },
    {
      "name": "fallback Material.006",
      "pbrMetallicRoughness": {
        "baseColorFactor": [
          0.37626224756240845, 0.04970642551779747, 0.10461648553609848, 1
        ],
        "metallicFactor": 0.7885196208953857
      }
    }
  ],
  "meshes": [
    {
      "name": "TextPlus001.001",
      "primitives": [
        {
          "attributes": {
            "POSITION": 0,
            "NORMAL": 1
          },
          "indices": 2,
          "material": 0
        },
        {
          "attributes": {
            "POSITION": 3,
            "NORMAL": 4
          },
          "indices": 5,
          "material": 1
        },
        {
          "attributes": {
            "POSITION": 6,
            "NORMAL": 7
          },
          "indices": 8,
          "material": 2
        }
      ]
    },
    {
      "name": "Cylinder002.001",
      "primitives": [
        {
          "attributes": {
            "POSITION": 9,
            "NORMAL": 10
          },
          "indices": 8,
          "material": 3
        }
      ]
    }
  ],
  "accessors": [
    {
      "bufferView": 0,
      "componentType": 5126,
      "count": 16914,
      "max": [50.04356384277344, 16.190576553344727, 3],
      "min": [-52.92710494995117, -56.62192916870117, 0],
      "type": "VEC3"
    },
    {
      "bufferView": 1,
      "componentType": 5126,
      "count": 16914,
      "type": "VEC3"
    },
    {
      "bufferView": 2,
      "componentType": 5123,
      "count": 55116,
      "type": "SCALAR"
    },
    {
      "bufferView": 3,
      "componentType": 5126,
      "count": 392,
      "max": [78.5629653930664, 56.716644287109375, -4.617839336395264],
      "min": [-76.2263412475586, -133.49575805664062, -11.745454788208008],
      "type": "VEC3"
    },
    {
      "bufferView": 4,
      "componentType": 5126,
      "count": 392,
      "type": "VEC3"
    },
    {
      "bufferView": 5,
      "componentType": 5123,
      "count": 828,
      "type": "SCALAR"
    },
    {
      "bufferView": 6,
      "componentType": 5126,
      "count": 38,
      "max": [70.19923400878906, 48.6417236328125, -0.6283659934997559],
      "min": [-68.07618713378906, -89.63369750976562, -7.755965232849121],
      "type": "VEC3"
    },
    {
      "bufferView": 7,
      "componentType": 5126,
      "count": 38,
      "type": "VEC3"
    },
    {
      "bufferView": 8,
      "componentType": 5123,
      "count": 96,
      "type": "SCALAR"
    },
    {
      "bufferView": 9,
      "componentType": 5126,
      "count": 38,
      "max": [300, 300, 52.00880432128906],
      "min": [-300, -300, 0],
      "type": "VEC3"
    },
    {
      "bufferView": 10,
      "componentType": 5126,
      "count": 38,
      "type": "VEC3"
    },
    {
      "bufferView": 11,
      "componentType": 5126,
      "count": 240,
      "max": [10],
      "min": [0.041666666666666664],
      "type": "SCALAR"
    },
    {
      "bufferView": 12,
      "componentType": 5126,
      "count": 240,
      "type": "VEC3"
    },
    {
      "bufferView": 13,
      "componentType": 5126,
      "count": 240,
      "type": "VEC4"
    }
  ],
  "bufferViews": [
    {
      "buffer": 0,
      "byteLength": 202968,
      "byteOffset": 0,
      "target": 34962
    },
    {
      "buffer": 0,
      "byteLength": 202968,
      "byteOffset": 202968,
      "target": 34962
    },
    {
      "buffer": 0,
      "byteLength": 110232,
      "byteOffset": 405936,
      "target": 34963
    },
    {
      "buffer": 0,
      "byteLength": 4704,
      "byteOffset": 516168,
      "target": 34962
    },
    {
      "buffer": 0,
      "byteLength": 4704,
      "byteOffset": 520872,
      "target": 34962
    },
    {
      "buffer": 0,
      "byteLength": 1656,
      "byteOffset": 525576,
      "target": 34963
    },
    {
      "buffer": 0,
      "byteLength": 456,
      "byteOffset": 527232,
      "target": 34962
    },
    {
      "buffer": 0,
      "byteLength": 456,
      "byteOffset": 527688,
      "target": 34962
    },
    {
      "buffer": 0,
      "byteLength": 192,
      "byteOffset": 528144,
      "target": 34963
    },
    {
      "buffer": 0,
      "byteLength": 456,
      "byteOffset": 528336,
      "target": 34962
    },
    {
      "buffer": 0,
      "byteLength": 456,
      "byteOffset": 528792,
      "target": 34962
    },
    {
      "buffer": 0,
      "byteLength": 960,
      "byteOffset": 529248
    },
    {
      "buffer": 0,
      "byteLength": 2880,
      "byteOffset": 530208
    },
    {
      "buffer": 0,
      "byteLength": 3840,
      "byteOffset": 533088
    }
  ],
  "buffers": [
    {
      "byteLength": 536928,
      "uri": "data:application/octet-stream;base64,"
    }
  ]
}
