{
  "asset": {
    "generator": "Khronos glTF Blender I/O v3.6.28",
    "version": "2.0"
  },
  "extensionsUsed": ["KHR_materials_transmission", "KHR_materials_specular"],
  "scene": 0,
  "scenes": [
    {
      "name": "Scene",
      "nodes": [0, 1]
    }
  ],
  "nodes": [
    {
      "mesh": 0,
      "name": "Cylinder002.001",
      "rotation": [-0.70710688829422, 0, 0, 0.7071066498756409],
      "scale": [
        0.005831181071698666, 0.005831181071698666, 0.005831181071698666
      ],
      "translation": [
        43.35954666137695, 1.9476871490478516, -0.4132370948791504
      ]
    },
    {
      "mesh": 1,
      "name": "date",
      "rotation": [0, -0.1961161345243454, 0, 0.9805806875228882],
      "scale": [0.08999999612569809, 0.10999999195337296, 0.08999999612569809],
      "translation": [
        43.2711181640625, 12.052509307861328, 2.724322939684498e-6
      ]
    }
  ],
  "animations": [
    {
      "channels": [
        {
          "sampler": 0,
          "target": {
            "node": 1,
            "path": "translation"
          }
        },
        {
          "sampler": 1,
          "target": {
            "node": 1,
            "path": "rotation"
          }
        }
      ],
      "name": "SecondDateAction",
      "samplers": [
        {
          "input": 11,
          "interpolation": "LINEAR",
          "output": 12
        },
        {
          "input": 11,
          "interpolation": "LINEAR",
          "output": 13
        }
      ]
    }
  ],
  "materials": [
    {
      "name": "fallback Material.006",
      "pbrMetallicRoughness": {
        "baseColorFactor": [
          0.37626224756240845, 0.04970642551779747, 0.10461648553609848, 1
        ],
        "metallicFactor": 0.7885196208953857
      }
    },
    {
      "emissiveFactor": [
        0.13007040321826935, 0.014803380705416203, 0.019981350749731064
      ],
      "extensions": {
        "KHR_materials_transmission": {
          "transmissionFactor": 0.1899999976158142
        }
      },
      "name": "M_01___Default.005",
      "pbrMetallicRoughness": {
        "baseColorFactor": [
          0.606995165348053, 0.06908243894577026, 0.09324630349874496, 1
        ],
        "metallicFactor": 0.5,
        "roughnessFactor": 0.6899999976158142
      }
    },
    {
      "extensions": {
        "KHR_materials_specular": {
          "specularColorFactor": [
            0.4000000059604644, 0.4000000059604644, 0.4000000059604644
          ]
        }
      },
      "name": "fallback Material.007",
      "pbrMetallicRoughness": {
        "baseColorFactor": [
          0.6509804129600525, 0.8980392217636108, 0.8980392217636108, 1
        ],
        "metallicFactor": 0,
        "roughnessFactor": 0
      }
    },
    {
      "extensions": {
        "KHR_materials_specular": {
          "specularColorFactor": [0, 0, 0]
        }
      },
      "name": "TimelineBubblePlastic02.001",
      "pbrMetallicRoughness": {
        "baseColorFactor": [
          0.8307697176933289, 0.2462010234594345, 0.2704978585243225, 1
        ],
        "metallicFactor": 0.30000001192092896
      }
    }
  ],
  "meshes": [
    {
      "name": "Cylinder002.002",
      "primitives": [
        {
          "attributes": {
            "POSITION": 0,
            "NORMAL": 1
          },
          "indices": 2,
          "material": 0
        }
      ]
    },
    {
      "name": "TextPlus013.001",
      "primitives": [
        {
          "attributes": {
            "POSITION": 3,
            "NORMAL": 4
          },
          "indices": 5,
          "material": 1
        },
        {
          "attributes": {
            "POSITION": 6,
            "NORMAL": 7
          },
          "indices": 2,
          "material": 2
        },
        {
          "attributes": {
            "POSITION": 8,
            "NORMAL": 9
          },
          "indices": 10,
          "material": 3
        }
      ]
    }
  ],
  "accessors": [
    {
      "bufferView": 0,
      "componentType": 5126,
      "count": 38,
      "max": [300, 300, 52.00880432128906],
      "min": [-300, -300, 0],
      "type": "VEC3"
    },
    {
      "bufferView": 1,
      "componentType": 5126,
      "count": 38,
      "type": "VEC3"
    },
    {
      "bufferView": 2,
      "componentType": 5123,
      "count": 96,
      "type": "SCALAR"
    },
    {
      "bufferView": 3,
      "componentType": 5126,
      "count": 11135,
      "max": [42.79606246948242, 38.03565216064453, 3],
      "min": [-40.28133010864258, -5.830704212188721, -6.433946509787347e-6],
      "type": "VEC3"
    },
    {
      "bufferView": 4,
      "componentType": 5126,
      "count": 11135,
      "type": "VEC3"
    },
    {
      "bufferView": 5,
      "componentType": 5123,
      "count": 36132,
      "type": "SCALAR"
    },
    {
      "bufferView": 6,
      "componentType": 5126,
      "count": 38,
      "max": [54.518043518066406, 61.2497673034668, -0.4897705912590027],
      "min": [-53.259735107421875, -26.93204689025879, -6.04534387588501],
      "type": "VEC3"
    },
    {
      "bufferView": 7,
      "componentType": 5126,
      "count": 38,
      "type": "VEC3"
    },
    {
      "bufferView": 8,
      "componentType": 5126,
      "count": 392,
      "max": [61.03709411621094, 66.39935302734375, -3.5993330478668213],
      "min": [-59.61231231689453, -54.904014587402344, -9.154922485351562],
      "type": "VEC3"
    },
    {
      "bufferView": 9,
      "componentType": 5126,
      "count": 392,
      "type": "VEC3"
    },
    {
      "bufferView": 10,
      "componentType": 5123,
      "count": 828,
      "type": "SCALAR"
    },
    {
      "bufferView": 11,
      "componentType": 5126,
      "count": 240,
      "max": [10],
      "min": [0.041666666666666664],
      "type": "SCALAR"
    },
    {
      "bufferView": 12,
      "componentType": 5126,
      "count": 240,
      "type": "VEC3"
    },
    {
      "bufferView": 13,
      "componentType": 5126,
      "count": 240,
      "type": "VEC4"
    }
  ],
  "bufferViews": [
    {
      "buffer": 0,
      "byteLength": 456,
      "byteOffset": 0,
      "target": 34962
    },
    {
      "buffer": 0,
      "byteLength": 456,
      "byteOffset": 456,
      "target": 34962
    },
    {
      "buffer": 0,
      "byteLength": 192,
      "byteOffset": 912,
      "target": 34963
    },
    {
      "buffer": 0,
      "byteLength": 133620,
      "byteOffset": 1104,
      "target": 34962
    },
    {
      "buffer": 0,
      "byteLength": 133620,
      "byteOffset": 134724,
      "target": 34962
    },
    {
      "buffer": 0,
      "byteLength": 72264,
      "byteOffset": 268344,
      "target": 34963
    },
    {
      "buffer": 0,
      "byteLength": 456,
      "byteOffset": 340608,
      "target": 34962
    },
    {
      "buffer": 0,
      "byteLength": 456,
      "byteOffset": 341064,
      "target": 34962
    },
    {
      "buffer": 0,
      "byteLength": 4704,
      "byteOffset": 341520,
      "target": 34962
    },
    {
      "buffer": 0,
      "byteLength": 4704,
      "byteOffset": 346224,
      "target": 34962
    },
    {
      "buffer": 0,
      "byteLength": 1656,
      "byteOffset": 350928,
      "target": 34963
    },
    {
      "buffer": 0,
      "byteLength": 960,
      "byteOffset": 352584
    },
    {
      "buffer": 0,
      "byteLength": 2880,
      "byteOffset": 353544
    },
    {
      "buffer": 0,
      "byteLength": 3840,
      "byteOffset": 356424
    }
  ],
  "buffers": [
    {
      "byteLength": 360264,
      "uri": "data:application/octet-stream;base64,"
    }
  ]
}
