{
  "asset": {
    "generator": "Khronos glTF Blender I/O v3.6.28",
    "version": "2.0"
  },
  "scene": 0,
  "scenes": [
    {
      "name": "Scene",
      "nodes": [0]
    }
  ],
  "nodes": [
    {
      "mesh": 0,
      "name": "Cube",
      "scale": [5, 0.5, 0.20000000298023224],
      "translation": [5, 0, 0]
    }
  ],
  "materials": [
    {
      "name": "SignalTransmMaterial",
      "pbrMetallicRoughness": {
        "baseColorFactor": [0.9913930296897888, 0.9913930296897888, 1, 1],
        "roughnessFactor": 0.28999999165534973
      }
    }
  ],
  "meshes": [
    {
      "name": "Cube",
      "primitives": [
        {
          "attributes": {
            "POSITION": 0,
            "NORMAL": 1,
            "TEXCOORD_0": 2
          },
          "indices": 3,
          "material": 0
        }
      ]
    }
  ],
  "accessors": [
    {
      "bufferView": 0,
      "componentType": 5126,
      "count": 840,
      "max": [-0.055526018142700195, 0.05000001937150955, 23.55631446838379],
      "min": [-1.9436850547790527, -0.05000001937150955, -23.5775146484375],
      "type": "VEC3"
    },
    {
      "bufferView": 1,
      "componentType": 5126,
      "count": 840,
      "type": "VEC3"
    },
    {
      "bufferView": 2,
      "componentType": 5126,
      "count": 840,
      "type": "VEC2"
    },
    {
      "bufferView": 3,
      "componentType": 5123,
      "count": 1260,
      "type": "SCALAR"
    }
  ],
  "bufferViews": [
    {
      "buffer": 0,
      "byteLength": 10080,
      "byteOffset": 0,
      "target": 34962
    },
    {
      "buffer": 0,
      "byteLength": 10080,
      "byteOffset": 10080,
      "target": 34962
    },
    {
      "buffer": 0,
      "byteLength": 6720,
      "byteOffset": 20160,
      "target": 34962
    },
    {
      "buffer": 0,
      "byteLength": 2520,
      "byteOffset": 26880,
      "target": 34963
    }
  ],
  "buffers": [
    {
      "byteLength": 29400,
      "uri": "data:application/octet-stream;base64,"
    }
  ]
}
