{
  "asset": {
    "generator": "Khronos glTF Blender I/O v3.6.28",
    "version": "2.0"
  },
  "extensionsUsed": ["KHR_materials_transmission", "KHR_materials_specular"],
  "scene": 0,
  "scenes": [
    {
      "name": "Scene",
      "nodes": [0, 2, 3, 4]
    }
  ],
  "nodes": [
    {
      "name": "Node_1",
      "translation": [0, 2.5693864822387695, 0]
    },
    {
      "mesh": 0,
      "name": "TextPlus007",
      "rotation": [0, -0.1961161196231842, 0, 0.9805806875228882],
      "scale": [0.09000000357627869, 0.10999999940395355, 0.07500000298023224],
      "translation": [-0.3403511047363281, 7, 0]
    },
    {
      "children": [1],
      "name": "Node_3",
      "translation": [0.056333575397729874, 1.2169828414916992, 0]
    },
    {
      "name": "Node_5",
      "translation": [0, 2.058579683303833, 0]
    },
    {
      "mesh": 1,
      "name": "bottomOctagon",
      "rotation": [-0.70710688829422, 0, 0, 0.7071066498756409],
      "scale": [
        0.005831181071698666, 0.005831181537359953, 0.005831181537359953
      ],
      "translation": [
        0.05771923065185547, -0.8135616183280945, -0.29901617765426636
      ]
    }
  ],
  "animations": [
    {
      "channels": [
        {
          "sampler": 0,
          "target": {
            "node": 1,
            "path": "translation"
          }
        },
        {
          "sampler": 1,
          "target": {
            "node": 1,
            "path": "rotation"
          }
        }
      ],
      "name": "SecondDateAction",
      "samplers": [
        {
          "input": 11,
          "interpolation": "LINEAR",
          "output": 12
        },
        {
          "input": 11,
          "interpolation": "LINEAR",
          "output": 13
        }
      ]
    }
  ],
  "materials": [
    {
      "emissiveFactor": [
        0.13007040321826935, 0.014803380705416203, 0.019981350749731064
      ],
      "extensions": {
        "KHR_materials_transmission": {
          "transmissionFactor": 0.1899999976158142
        }
      },
      "name": "M_01___Default.004",
      "pbrMetallicRoughness": {
        "baseColorFactor": [
          0.606995165348053, 0.06908243894577026, 0.09324630349874496, 1
        ],
        "metallicFactor": 0.5,
        "roughnessFactor": 0.6899999976158142
      }
    },
    {
      "extensions": {
        "KHR_materials_specular": {
          "specularColorFactor": [
            0.4000000059604644, 0.4000000059604644, 0.4000000059604644
          ]
        }
      },
      "name": "Octagon_Material",
      "pbrMetallicRoughness": {
        "baseColorFactor": [
          0.6509804129600525, 0.8980392217636108, 0.8980392217636108, 1
        ],
        "metallicFactor": 0,
        "roughnessFactor": 0
      }
    },
    {
      "extensions": {
        "KHR_materials_specular": {
          "specularColorFactor": [0, 0, 0]
        }
      },
      "name": "Timeline_Bubble_Material",
      "pbrMetallicRoughness": {
        "baseColorFactor": [
          0.8307697176933289, 0.2462010234594345, 0.2704978585243225,
          0.20000000298023224
        ],
        "metallicFactor": 0.30000001192092896
      }
    },
    {
      "emissiveFactor": [
        0.13007040321826935, 0.014803380705416203, 0.019981350749731064
      ],
      "extensions": {
        "KHR_materials_transmission": {
          "transmissionFactor": 0.1899999976158142
        }
      },
      "name": "M_01___Default.003",
      "pbrMetallicRoughness": {
        "baseColorFactor": [
          0.37626224756240845, 0.04970642551779747, 0.10461648553609848, 1
        ],
        "metallicFactor": 0.20000000298023224,
        "roughnessFactor": 0.4271601140499115
      }
    }
  ],
  "meshes": [
    {
      "name": "TextPlus007",
      "primitives": [
        {
          "attributes": {
            "POSITION": 0,
            "NORMAL": 1
          },
          "indices": 2,
          "material": 0
        },
        {
          "attributes": {
            "POSITION": 3,
            "NORMAL": 4
          },
          "indices": 5,
          "material": 1
        },
        {
          "attributes": {
            "POSITION": 6,
            "NORMAL": 7
          },
          "indices": 8,
          "material": 2
        }
      ]
    },
    {
      "name": "Cylinder002.008",
      "primitives": [
        {
          "attributes": {
            "POSITION": 9,
            "NORMAL": 10
          },
          "indices": 5,
          "material": 3
        }
      ]
    }
  ],
  "accessors": [
    {
      "bufferView": 0,
      "componentType": 5126,
      "count": 6776,
      "max": [28.524166107177734, 46.43158721923828, 3.1999945640563965],
      "min": [-30.226646423339844, -5.830704212188721, -6.765230864402838e-6],
      "type": "VEC3"
    },
    {
      "bufferView": 1,
      "componentType": 5126,
      "count": 6776,
      "type": "VEC3"
    },
    {
      "bufferView": 2,
      "componentType": 5123,
      "count": 22584,
      "type": "SCALAR"
    },
    {
      "bufferView": 3,
      "componentType": 5126,
      "count": 38,
      "max": [54.46269226074219, 64.27107238769531, -0.5876874923706055],
      "min": [-53.3150749206543, -23.91073226928711, -7.254415988922119],
      "type": "VEC3"
    },
    {
      "bufferView": 4,
      "componentType": 5126,
      "count": 38,
      "type": "VEC3"
    },
    {
      "bufferView": 5,
      "componentType": 5123,
      "count": 96,
      "type": "SCALAR"
    },
    {
      "bufferView": 6,
      "componentType": 5126,
      "count": 392,
      "max": [61.0928840637207, 69.420654296875, -4.319153308868408],
      "min": [-59.5565071105957, -51.88270568847656, -10.985913276672363],
      "type": "VEC3"
    },
    {
      "bufferView": 7,
      "componentType": 5126,
      "count": 392,
      "type": "VEC3"
    },
    {
      "bufferView": 8,
      "componentType": 5123,
      "count": 828,
      "type": "SCALAR"
    },
    {
      "bufferView": 9,
      "componentType": 5126,
      "count": 38,
      "max": [300, 300, 52.00880432128906],
      "min": [-300, -300, 0],
      "type": "VEC3"
    },
    {
      "bufferView": 10,
      "componentType": 5126,
      "count": 38,
      "type": "VEC3"
    },
    {
      "bufferView": 11,
      "componentType": 5126,
      "count": 240,
      "max": [10],
      "min": [0.041666666666666664],
      "type": "SCALAR"
    },
    {
      "bufferView": 12,
      "componentType": 5126,
      "count": 240,
      "type": "VEC3"
    },
    {
      "bufferView": 13,
      "componentType": 5126,
      "count": 240,
      "type": "VEC4"
    }
  ],
  "bufferViews": [
    {
      "buffer": 0,
      "byteLength": 81312,
      "byteOffset": 0,
      "target": 34962
    },
    {
      "buffer": 0,
      "byteLength": 81312,
      "byteOffset": 81312,
      "target": 34962
    },
    {
      "buffer": 0,
      "byteLength": 45168,
      "byteOffset": 162624,
      "target": 34963
    },
    {
      "buffer": 0,
      "byteLength": 456,
      "byteOffset": 207792,
      "target": 34962
    },
    {
      "buffer": 0,
      "byteLength": 456,
      "byteOffset": 208248,
      "target": 34962
    },
    {
      "buffer": 0,
      "byteLength": 192,
      "byteOffset": 208704,
      "target": 34963
    },
    {
      "buffer": 0,
      "byteLength": 4704,
      "byteOffset": 208896,
      "target": 34962
    },
    {
      "buffer": 0,
      "byteLength": 4704,
      "byteOffset": 213600,
      "target": 34962
    },
    {
      "buffer": 0,
      "byteLength": 1656,
      "byteOffset": 218304,
      "target": 34963
    },
    {
      "buffer": 0,
      "byteLength": 456,
      "byteOffset": 219960,
      "target": 34962
    },
    {
      "buffer": 0,
      "byteLength": 456,
      "byteOffset": 220416,
      "target": 34962
    },
    {
      "buffer": 0,
      "byteLength": 960,
      "byteOffset": 220872
    },
    {
      "buffer": 0,
      "byteLength": 2880,
      "byteOffset": 221832
    },
    {
      "buffer": 0,
      "byteLength": 3840,
      "byteOffset": 224712
    }
  ],
  "buffers": [
    {
      "byteLength": 228552,
      "uri": "data:application/octet-stream;base64,"
    }
  ]
}
