<svg xmlns="http://www.w3.org/2000/svg" id="Layer_1" data-name="Layer 1" viewBox="0 0 434.84 360">
  <defs>
    <style>
      .cls-1{fill:#0066b3;}.cls-2{fill:#fff;}.cls-3{fill:#ed1c24;}
    </style>
  </defs>
  <path d="M381.52 180c0 98.73-81.27 180-180 180s-180-81.27-180-180 81.27-180 180-180 180 81.26 180 180z" class="cls-1"/>
  <circle cx="202.54" cy="16.35" r="1.47" class="cls-2"/>
  <path d="M214.16 38.57a1.8 1.8 0 1 1-1.8-1.8 1.81 1.81 0 0 1 1.8 1.8zM240.55 74.89a1.8 1.8 0 1 1-1.8-1.8 1.81 1.81 0 0 1 1.8 1.8z" class="cls-2"/>
  <circle cx="196.67" cy="51.09" r="1.47" class="cls-2"/>
  <path d="M213.93 59.44a1.46 1.46 0 1 1-1.47-1.44 1.47 1.47 0 0 1 1.47 1.44zM193.4 36.09a1.8 1.8 0 1 1-1.8-1.8 1.81 1.81 0 0 1 1.8 1.8z" class="cls-2"/>
  <circle cx="168.03" cy="50.64" r="1.47" class="cls-2"/>
  <path d="M173.78 53.57a1.47 1.47 0 1 1-1.47-1.46 1.48 1.48 0 0 1 1.47 1.46z" class="cls-2"/>
  <circle cx="176.6" cy="56.5" r="1.47" class="cls-2"/>
  <path d="M171.52 62.14a1.46 1.46 0 1 1-1.46-1.47 1.47 1.47 0 0 1 1.46 1.47zM137.46 86.05a1.47 1.47 0 1 1-1.46-1.46 1.47 1.47 0 0 1 1.46 1.46zM143.78 93.72a1.47 1.47 0 1 1-1.46-1.47 1.47 1.47 0 0 1 1.46 1.47z" class="cls-2"/>
  <circle cx="137.35" cy="217.56" r="1.47" class="cls-2"/>
  <circle cx="137.92" cy="251.73" r="1.8" class="cls-2"/>
  <circle cx="118.86" cy="269.21" r="1.47" class="cls-2"/>
  <path d="M97.09 276.32a1.8 1.8 0 1 1-1.8-1.81 1.82 1.82 0 0 1 1.8 1.81zM92.35 260.53a1.8 1.8 0 1 1-1.8-1.81 1.82 1.82 0 0 1 1.8 1.81z" class="cls-2"/>
  <circle cx="88.18" cy="270.56" r="1.46" class="cls-2"/>
  <circle cx="70.81" cy="262.22" r="1.47" class="cls-2"/>
  <ellipse cx="131.49" cy="290.41" class="cls-2" rx="1.46" ry="1.47"/>
  <path d="M151.22 277a1.8 1.8 0 1 1-1.8-1.8 1.81 1.81 0 0 1 1.8 1.8z" class="cls-2"/>
  <circle cx="151.79" cy="294.25" r="1.47" class="cls-2"/>
  <circle cx="226.9" cy="277.78" r="1.46" class="cls-2"/>
  <circle cx="191.94" cy="290.19" r="1.47" class="cls-2"/>
  <ellipse cx="286" cy="308.01" class="cls-2" rx="1.46" ry="1.47"/>
  <path d="M295.13 238.65a1.8 1.8 0 1 1-1.8-1.8 1.82 1.82 0 0 1 1.8 1.8z" class="cls-2"/>
  <circle cx="279.23" cy="248.46" r="1.46" class="cls-2"/>
  <path d="M294.91 251.28a1.8 1.8 0 1 1-1.8-1.8 1.81 1.81 0 0 1 1.8 1.8zM280.7 268.76a1.46 1.46 0 1 1-1.46-1.46 1.47 1.47 0 0 1 1.46 1.46z" class="cls-2"/>
  <circle cx="316" cy="228.84" r="1.46" class="cls-2"/>
  <path d="M321.07 237.75a1.8 1.8 0 1 1-1.8-1.8 1.81 1.81 0 0 1 1.8 1.8zM346.34 248.34a1.8 1.8 0 1 1-1.8-1.8 1.81 1.81 0 0 1 1.8 1.8z" class="cls-2"/>
  <circle cx="319.16" cy="267.18" r="1.47" class="cls-2"/>
  <ellipse cx="335.4" cy="251.84" class="cls-2" rx="1.47" ry="1.46"/>
  <path d="M333.93 275.53a1.46 1.46 0 1 1-1.46-1.47 1.47 1.47 0 0 1 1.46 1.47zM235.6 34.39a2.58 2.58 0 0 1 1.92-1.84l.52-3.86.76 3.89a2.58 2.58 0 0 1 1.8 1.93l3.91.56-3.94.69a2.58 2.58 0 0 1-1.87 1.81l-.66 4-.67-4a2.59 2.59 0 0 1-1.78-1.86l-3.77-.61zM134.47 311.09a2.58 2.58 0 0 1 1.92-1.84l.51-3.86.76 3.9a2.55 2.55 0 0 1 1.81 1.92l3.91.56-3.94.7a2.57 2.57 0 0 1-1.87 1.8l-.66 4-.67-4a2.56 2.56 0 0 1-1.78-1.86l-3.77-.61zM320.45 275.41a2.58 2.58 0 0 1 1.92-1.84l.52-3.86.76 3.89a2.58 2.58 0 0 1 1.8 1.92l3.91.55-3.95.7a2.61 2.61 0 0 1-1.87 1.81l-.66 4-.67-4a2.59 2.59 0 0 1-1.78-1.86l-3.77-.62zM335.18 235.63a2.58 2.58 0 0 1 1.92-1.84l.51-3.86.77 3.9a2.59 2.59 0 0 1 1.8 1.92l3.91.55-3.95.7a2.56 2.56 0 0 1-1.86 1.8l-.67 4-.66-4a2.58 2.58 0 0 1-1.78-1.86l-3.77-.62zM152.52 88.68a2.58 2.58 0 0 1 1.92-1.84L155 83l.76 3.9a2.58 2.58 0 0 1 1.81 1.92l3.91.56-3.94.7a2.59 2.59 0 0 1-1.87 1.81l-.66 4-.67-4A2.58 2.58 0 0 1 152.5 90l-3.77-.61zM140.59 172.43c13.3 23.23 28.79 40.24 41.28 56.39 11.08 14.34 32.67 21.52 25.07 28.32-8.57 7.67-29.32-26.16-29.32-26.16a411.64 411.64 0 0 1-40.45-57.35z" class="cls-2"/>
  <path d="M0 233.4c64.25-42.2 176.38-69.4 268.74-106.11 70.16-27.86 132.56-62.83 166.1-111C349.84 189.45 113.12 169 4.62 235z" class="cls-3"/>
  <path d="M171.28 188.38l-9.28-23.6-6.83 23.6zm-21.91-40.84h32.18l23.07 58.1 7.69 7.72h-41.89l7.69-7.72-2.73-7.09h-23.12l-2.38 8.11 5.51 6.7h-21.85l7.69-7.72 14.82-51.38zM322 188.38l-9.31-23.6-6.83 23.6zm-23.13-40.84h33.4l23.07 58.1 7.7 7.72h-41.9l7.7-7.72-2.73-7.09H303l-2.38 8.11 5.52 6.7h-21.89l7.69-7.72 14.82-51.38zM105.71 188.53v-34.27L99 147.54h22.26l-6.68 6.72v51.38l7.69 7.72H93.06l-25.2-42.63v34.91l6.47 7.72H51.07l7.69-7.72v-51.38l-6.68-6.72h29.14zM274.26 164.42l-.68-20.49-6.9 4.76c-9.72-3.4-21-3.27-29 .48-7.39 3.5-15.36 10.88-14.39 21.36s9.1 14.55 16.43 17.87c9.43 4.27 19.69 5.72 19.54 11.37-.1 3.59-6.06 6.16-10.7 6-4.23-.13-18-1.16-25.17-9.71l1.36 21.56 7.68-5.63c9.33 3.3 20.63 4.69 31.09 1.27s21.33-12.09 15.27-27.29c-2.61-6.55-9.8-10.58-14.09-12.33-3.93-1.61-15.91-6.32-19.25-8.06-3.91-2-3.47-8.5 5.93-9.81 8.56-1.18 20.35 5.64 22.88 8.65z" class="cls-2"/>
  <path d="M49.75 334.44c129-131.7 321.36-192.54 385.09-318.13C396.47 138.41 191 205.75 49.41 340.62z" class="cls-3"/>
  <path d="M137.16 173.62q-2.26-3.89-4.54-8c-34.4-61.89-29.44-125 32.82-97.52C218.28 91.48 268.74 157 289 203.52c9.41 21.55 34.63 106.17-46.58 71.88l-.16-.49c76.69 31.58 63.43-48.45 22.38-109.8-23.23-34.72-53.53-63.64-72.64-77.59-63.61-46.47-102.41-18-57.74 73.08 2 4.13 4.12 8.06 6.28 11.83z" class="cls-2"/>
</svg>
